<svg width="85" height="124" viewBox="0 0 85 124" fill="none" xmlns="http://www.w3.org/2000/svg">
<path fill-rule="evenodd" clip-rule="evenodd" d="M71.1076 3.09744L63.862 0L50.1875 31.9086H0V39.7886H6.91879L14.5786 120.215L14.579 120.219C14.7678 122.238 16.4648 123.789 18.5 123.789H66.5C68.529 123.789 70.2312 122.248 70.4209 120.22L70.4215 120.213L78.0812 39.7886H85V31.9086H58.7594L71.1076 3.09744ZM68.6348 55.9086H48.4754L55.3844 39.7886H70.1705L68.6348 55.9086ZM14.8335 39.7886H46.8126L39.9035 55.9086H16.3692L14.8335 39.7886ZM22.0812 115.909L17.1174 63.7886H67.8788L62.9186 115.909H22.0812ZM54.5001 81.2887C51.5001 81.2887 49.0601 78.8487 49.0601 75.8487C49.0601 72.8487 51.5001 70.4087 54.5001 70.4087C57.5001 70.4087 59.9401 72.8487 59.9401 75.8487C59.9401 78.8487 57.5001 81.2887 54.5001 81.2887ZM25.0601 83.8487C25.0601 86.8487 27.5001 89.2887 30.5001 89.2887C33.5001 89.2887 35.9401 86.8487 35.9401 83.8487C35.9401 80.8487 33.5001 78.4087 30.5001 78.4087C27.5001 78.4087 25.0601 80.8487 25.0601 83.8487ZM42.5001 101.289C39.5001 101.289 37.0601 98.8487 37.0601 95.8487C37.0601 92.8487 39.5001 90.4087 42.5001 90.4087C45.5001 90.4087 47.9401 92.8487 47.9401 95.8487C47.9401 98.8487 45.5001 101.289 42.5001 101.289ZM25.0601 107.849C25.0601 110.849 27.5001 113.289 30.5001 113.289C33.5001 113.289 35.9401 110.849 35.9401 107.849C35.9401 104.849 33.5001 102.409 30.5001 102.409C27.5001 102.409 25.0601 104.849 25.0601 107.849ZM49.0601 107.849C49.0601 110.849 51.5001 113.289 54.5001 113.289C57.5001 113.289 59.9401 110.849 59.9401 107.849C59.9401 104.849 57.5001 102.409 54.5001 102.409C51.5001 102.409 49.0601 104.849 49.0601 107.849Z" fill="#A3E635"/>
</svg>
