<svg width="97" height="96" viewBox="0 0 97 96" fill="none" xmlns="http://www.w3.org/2000/svg">
<path d="M44.8041 39.75H52.2391L54.086 37.2074V17.2888H42.9578V37.2089L44.8041 39.75Z" fill="#6B7280"/>
<path d="M40.0117 48.6338L42.3089 41.5631L40.4613 39.02L21.5176 32.8649L18.0786 43.4487L37.0251 49.6045L40.0117 48.6338Z" fill="#6B7280"/>
<path d="M46.9798 55.9384L40.9655 51.5667L37.9761 52.5396L26.2683 68.6542L35.2708 75.1943L46.9798 59.0788V55.9384Z" fill="#6B7280"/>
<path d="M56.0796 51.5667L50.064 55.9367L50.0649 59.0794L61.7723 75.1943L70.7759 68.6542L59.0661 52.538L56.0796 51.5667Z" fill="#6B7280"/>
<path d="M54.7332 41.5623L57.0316 48.6343L60.0207 49.604L78.9645 43.4498L75.526 32.8661L56.581 39.0222L54.7332 41.5623Z" fill="#6B7280"/>
<path d="M48.5243 -2.13871e-06C22.0577 -2.13871e-06 0.524658 21.5291 0.524658 47.992C0.524658 74.4645 22.0577 96 48.5243 96C74.9886 96 96.5185 74.4645 96.5185 47.992C96.5185 21.5291 74.9886 -2.13871e-06 48.5243 -2.13871e-06ZM48.5243 9.71749C69.6595 9.71749 86.8002 26.8511 86.8002 47.992C86.8002 69.14 69.6595 86.2809 48.5243 86.2809C27.3808 86.2809 10.2431 69.14 10.2431 47.992C10.2431 26.8511 27.3808 9.71749 48.5243 9.71749Z" fill="#6B7280"/>
<path d="M77.5947 58.6597L63.1941 53.9799L64.1468 51.0462L78.5467 55.726L77.5947 58.6597Z" fill="#6B7280"/>
<path d="M59.2284 35.5415L56.7332 33.7288L65.6323 21.4781L68.1282 23.2903L59.2284 35.5415Z" fill="#6B7280"/>
<path d="M37.969 35.4282L29.0708 23.1779L31.5667 21.3649L40.465 33.6159L37.969 35.4282Z" fill="#6B7280"/>
<path d="M19.3898 58.4766L18.4373 55.5435L32.8368 50.8662L33.7889 53.7993L19.3898 58.4766Z" fill="#6B7280"/>
<path d="M46.8848 78.5928H49.9686V63.4511H46.8848V78.5928Z" fill="#6B7280"/>
</svg>
