<svg width="88" height="96" viewBox="0 0 88 96" fill="none" xmlns="http://www.w3.org/2000/svg">
<path d="M83.7399 47.2664C83.7399 41.8387 79.8258 37.3098 74.6699 36.3424L87.0029 0H28.7062L41.0579 36.4161C36.0814 37.5227 32.3484 41.966 32.3484 47.2664C32.3484 51.2469 34.4538 54.7433 37.6094 56.7079C36.0916 58.967 34.2917 61.0929 32.2291 63.0368C28.9584 66.1199 25.3141 68.4581 21.3854 69.9962C17.4285 67.5128 15.7557 62.8297 17.493 58.7497L17.629 58.4305C17.7139 58.2308 17.7992 58.0305 17.8842 57.8301C22.2303 56.3161 25.3586 52.1827 25.3586 47.3306C25.3586 41.2 20.3665 36.2127 14.2304 36.2127C8.09434 36.2127 3.10255 41.2 3.10255 47.3306C3.10255 50.4249 4.3753 53.2269 6.42395 55.2445C6.05249 56.0356 5.66199 56.8397 5.26063 57.6634C3.38735 61.5075 1.26427 65.8646 0.461195 70.7028C-1.13374 80.3118 1.43862 87.9931 7.70452 92.3318C11.5068 94.9647 15.3679 96.0003 19.2535 96C26.5702 95.9997 33.9712 92.3274 41.2101 88.735C46.4239 86.1479 51.8146 83.4726 57.1398 82.1606C59.1212 81.6723 61.16 81.3786 63.3184 81.0676C67.5985 80.4506 72.0248 79.813 75.9453 77.5444C80.4895 74.9146 83.6006 70.5032 84.4801 65.4415C85.2353 61.0963 84.3262 56.7446 82.1096 53.0537C83.1431 51.3668 83.7399 49.3852 83.7399 47.2664ZM79.3714 47.2664C79.3714 50.9902 76.3392 54.0201 72.6117 54.0201C68.8849 54.0201 65.8523 50.9902 65.8523 47.2664C65.8523 43.5426 68.8849 40.5131 72.6117 40.5131C76.3392 40.5131 79.3714 43.5426 79.3714 47.2664ZM80.9089 4.36458L70.0183 36.4565C69.5462 36.5696 69.0861 36.7122 68.6391 36.8836L57.8807 14.9562L47.091 36.7539C46.6247 36.5933 46.1448 36.4612 45.6527 36.3634L34.7995 4.36458H80.9089ZM43.4763 40.5131C47.2035 40.5131 50.2357 43.5426 50.2357 47.2664C50.2357 50.9902 47.2035 54.0201 43.4763 54.0201C39.7494 54.0201 36.7169 50.9902 36.7169 47.2664C36.7169 43.5426 39.7494 40.5131 43.4763 40.5131ZM14.2304 40.5773C17.9579 40.5773 20.9901 43.6067 20.9901 47.3306C20.9901 51.0544 17.9579 54.0842 14.2304 54.0842C10.5036 54.0842 7.47104 51.0544 7.47104 47.3306C7.47104 43.6067 10.5036 40.5773 14.2304 40.5773ZM80.1759 64.6948C79.5182 68.4801 77.178 71.787 73.7557 73.7673C70.5654 75.6134 66.7424 76.1645 62.6947 76.7475C60.5265 77.0599 58.2841 77.3831 56.0937 77.923C50.3019 79.3498 44.692 82.1338 39.2668 84.8261C28.4102 90.2137 19.0339 94.8662 10.1933 88.7445C3.71735 84.2604 4.01642 75.9635 4.7709 71.4169C5.46998 67.2048 7.36025 63.3254 9.18833 59.5737C9.50473 58.9245 9.81196 58.2885 10.1134 57.6566C11.0201 58.0189 11.9843 58.2658 12.9893 58.3778C11.1286 64.5139 14.0551 71.1853 20.1972 74.3381L21.0377 74.7696L21.9281 74.4528C26.784 72.7252 31.2582 69.9524 35.227 66.2116C37.7926 63.7937 39.9972 61.1183 41.81 58.2597C42.3537 58.3415 42.9101 58.3846 43.4763 58.3846C49.6124 58.3846 54.6045 53.3973 54.6045 47.2664C54.6045 43.9694 53.1591 41.0044 50.8698 38.9664L57.8634 24.8371L64.9279 39.2357C62.8083 41.2615 61.4838 44.1113 61.4838 47.2664C61.4838 53.3973 66.4756 58.3846 72.6117 58.3846C74.9693 58.3846 77.1563 57.6464 78.9575 56.3922C80.2081 58.95 80.6741 61.828 80.1759 64.6948Z" fill="white"/>
</svg>
