<svg width="32" height="32" viewBox="0 0 32 32" fill="none" xmlns="http://www.w3.org/2000/svg">
<g clip-path="url(#clip0_83_633)">
<path d="M11.92 24.9398C13.6091 24.9504 15.2836 24.6256 16.8462 23.9841C18.4088 23.3426 19.8285 22.3972 21.0229 21.2028C22.2174 20.0083 23.1627 18.5886 23.8043 17.026C24.4458 15.4634 24.7706 13.789 24.76 12.0998C24.76 11.8998 24.76 11.7098 24.76 11.5098C25.6356 10.8683 26.3935 10.08 27 9.17982C26.1755 9.54042 25.3031 9.77957 24.41 9.88982C25.3569 9.3256 26.0674 8.43749 26.41 7.38982C25.5275 7.91926 24.5598 8.29146 23.55 8.48982C22.8699 7.76519 21.97 7.28488 20.9895 7.12321C20.0089 6.96154 19.0024 7.12752 18.1257 7.59548C17.249 8.06343 16.551 8.80727 16.1396 9.7119C15.7282 10.6165 15.6264 11.6315 15.85 12.5998C14.056 12.5118 12.3007 12.0468 10.6984 11.2353C9.096 10.4238 7.68254 9.2839 6.55 7.88982C5.97892 8.881 5.80583 10.0521 6.06576 11.1661C6.32569 12.2801 6.99923 13.2537 7.95 13.8898C7.24861 13.8628 6.56345 13.6709 5.95 13.3298V13.3798C5.94377 14.4157 6.29272 15.4223 6.9387 16.2321C7.58469 17.0418 8.48867 17.6057 9.5 17.8298C8.84764 18.0053 8.16429 18.0326 7.5 17.9098C7.79278 18.7932 8.35168 19.5644 9.10005 20.1176C9.84841 20.6708 10.7496 20.979 11.68 20.9998C10.0892 22.2803 8.11209 22.9852 6.07 22.9998C5.71195 22.9895 5.35475 22.9594 5 22.9098C7.06696 24.2267 9.4692 24.921 11.92 24.9098" fill="#6B7280"/>
</g>
<defs>
<clipPath id="clip0_83_633">
<rect width="32" height="32" fill="white"/>
</clipPath>
</defs>
</svg>
