<svg width="32" height="32" viewBox="0 0 32 32" fill="none" xmlns="http://www.w3.org/2000/svg">
<g clip-path="url(#clip0_83_620)">
<path fill-rule="evenodd" clip-rule="evenodd" d="M16.0001 2.00008C12.6764 2.00053 9.46124 3.18346 6.9298 5.33728C4.39836 7.49109 2.71576 10.4753 2.18301 13.756C1.65025 17.0368 2.30207 20.4 4.02189 23.2442C5.74171 26.0884 8.41732 28.2279 11.5701 29.2801C12.2701 29.4101 12.5701 28.9801 12.5701 28.6101C12.5701 28.2401 12.5701 27.4001 12.5701 26.2301C8.6801 27.0701 7.8601 24.3501 7.8601 24.3501C7.58655 23.4929 7.01082 22.7644 6.2401 22.3001C4.9701 21.4401 6.3401 21.4501 6.3401 21.4501C6.7837 21.5128 7.20712 21.676 7.57801 21.9273C7.9489 22.1786 8.25745 22.5113 8.4801 22.9001C8.86744 23.5948 9.51484 24.1073 10.2799 24.3248C11.045 24.5423 11.8652 24.4471 12.5601 24.0601C12.6166 23.3506 12.9294 22.6858 13.4401 22.1901C10.3401 21.8301 7.0701 20.6301 7.0701 15.2701C7.04743 13.878 7.56333 12.5309 8.5101 11.5101C8.08156 10.3043 8.13167 8.98006 8.6501 7.81008C8.6501 7.81008 9.8201 7.43008 12.5001 9.24008C14.7916 8.61503 17.2086 8.61503 19.5001 9.24008C22.1701 7.43008 23.3401 7.81008 23.3401 7.81008C23.8585 8.98006 23.9086 10.3043 23.4801 11.5101C24.4269 12.5309 24.9428 13.878 24.9201 15.2701C24.9201 20.6501 21.6501 21.8301 18.5301 22.1801C18.8643 22.5188 19.122 22.9253 19.2859 23.3721C19.4498 23.8189 19.516 24.2956 19.4801 24.7701C19.4801 26.6401 19.4801 28.1501 19.4801 28.6101C19.4801 29.0701 19.7301 29.4201 20.4801 29.2801C23.637 28.2266 26.3154 26.083 28.035 23.2335C29.7545 20.3841 30.4027 17.0153 29.8634 13.7313C29.3241 10.4472 27.6325 7.46266 25.092 5.31285C22.5514 3.16304 19.3281 1.98859 16.0001 2.00008V2.00008Z" fill="#6B7280"/>
</g>
<defs>
<clipPath id="clip0_83_620">
<rect width="32" height="32" fill="white"/>
</clipPath>
</defs>
</svg>
