<svg width="32" height="32" viewBox="0 0 32 32" fill="none" xmlns="http://www.w3.org/2000/svg">
<g clip-path="url(#clip0_83_617)">
<path d="M25.6999 7.0998C23.8999 6.2998 21.9999 5.6998 19.9999 5.2998H19.8999C19.6999 5.6998 19.3999 6.2998 19.1999 6.7998C16.9999 6.4998 14.8999 6.4998 12.7999 6.7998C12.5999 6.2998 12.2999 5.7998 12.0999 5.2998H11.9999C9.99991 5.5998 8.09991 6.1998 6.29991 7.0998C2.69991 12.4998 1.69991 17.7998 2.19991 22.9998V23.0998C4.59991 24.8998 6.89991 25.8998 9.19991 26.5998H9.29991C9.79991 25.8998 10.2999 25.0998 10.6999 24.2998V24.1998C9.89991 23.8998 9.19991 23.5998 8.49991 23.1998C8.39991 23.1998 8.39991 23.0998 8.49991 23.0998C8.59991 22.9998 8.79991 22.8998 8.89991 22.7998H8.99991C13.5999 24.8998 18.4999 24.8998 23.0999 22.7998H23.1999C23.2999 22.8998 23.4999 22.9998 23.5999 23.0998C23.6999 23.0998 23.5999 23.1998 23.5999 23.1998C22.8999 23.5998 22.1999 23.9998 21.3999 24.1998C21.3999 24.1998 21.2999 24.2998 21.3999 24.2998C21.7999 25.0998 22.2999 25.8998 22.7999 26.5998H22.8999C25.1999 25.8998 27.4999 24.7998 29.8999 23.0998C29.8999 23.0998 29.8999 23.0998 29.8999 22.9998C30.4999 16.9998 28.8999 11.7998 25.6999 7.0998ZM11.3999 19.8998C9.99991 19.8998 8.89991 18.5998 8.89991 17.0998C8.89991 15.5998 9.99991 14.2998 11.3999 14.2998C12.7999 14.2998 13.8999 15.5998 13.8999 17.0998C13.8999 18.5998 12.7999 19.8998 11.3999 19.8998ZM20.6999 19.8998C19.2999 19.8998 18.1999 18.5998 18.1999 17.0998C18.1999 15.5998 19.2999 14.2998 20.6999 14.2998C22.0999 14.2998 23.1999 15.5998 23.1999 17.0998C23.1999 18.5998 22.0999 19.8998 20.6999 19.8998Z" fill="#6B7280"/>
</g>
<defs>
<clipPath id="clip0_83_617">
<rect width="32" height="32" fill="white"/>
</clipPath>
</defs>
</svg>
