<svg width="32" height="32" viewBox="0 0 32 32" fill="none" xmlns="http://www.w3.org/2000/svg">
<g clip-path="url(#clip0_83_623)">
<path d="M9.04228 19.1661C9.0423 19.6648 8.89445 20.1522 8.61742 20.5669C8.3404 20.9815 7.94664 21.3046 7.48595 21.4955C7.02525 21.6863 6.51832 21.7363 6.02924 21.639C5.54017 21.5417 5.09092 21.3016 4.73832 20.949C4.38572 20.5964 4.1456 20.1471 4.04832 19.6581C3.95104 19.169 4.00098 18.662 4.19181 18.2014C4.38265 17.7407 4.70581 17.3469 5.12044 17.0699C5.53506 16.7929 6.02252 16.645 6.52118 16.645H9.04228V19.1661Z" fill="#6B7280"/>
<path d="M10.3127 19.166C10.3169 18.5001 10.5843 17.8629 11.0567 17.3935C11.529 16.9241 12.1679 16.6606 12.8338 16.6606C13.4997 16.6606 14.1386 16.9241 14.611 17.3935C15.0833 17.8629 15.3508 18.5001 15.355 19.166V25.4787C15.3571 25.8111 15.2934 26.1406 15.1676 26.4484C15.0419 26.7561 14.8565 27.0359 14.6222 27.2717C14.3879 27.5075 14.1092 27.6946 13.8023 27.8223C13.4954 27.95 13.1662 28.0157 12.8338 28.0157C12.5014 28.0157 12.1723 27.95 11.8653 27.8223C11.5584 27.6946 11.2798 27.5075 11.0455 27.2717C10.8111 27.0359 10.6258 26.7561 10.5 26.4484C10.3742 26.1406 10.3106 25.8111 10.3127 25.4787V19.166Z" fill="#6B7280"/>
<path d="M12.8339 9.0424C12.3353 9.04242 11.8478 8.89457 11.4332 8.61754C11.0186 8.34052 10.6954 7.94676 10.5046 7.48607C10.3137 7.02538 10.2638 6.51844 10.3611 6.02936C10.4583 5.54029 10.6985 5.09105 11.0511 4.73844C11.4037 4.38584 11.8529 4.14572 12.342 4.04844C12.8311 3.95116 13.338 4.0011 13.7987 4.19194C14.2594 4.38277 14.6531 4.70594 14.9302 5.12056C15.2072 5.53518 15.355 6.02265 15.355 6.5213V9.0424H12.8339Z" fill="#6B7280"/>
<path d="M12.8339 10.3126C13.4998 10.3167 14.137 10.5842 14.6064 11.0566C15.0758 11.5289 15.3392 12.1678 15.3392 12.8337C15.3392 13.4996 15.0758 14.1385 14.6064 14.6108C14.137 15.0832 13.4998 15.3507 12.8339 15.3548H6.52121C6.18879 15.3569 5.85924 15.2933 5.55152 15.1675C5.2438 15.0418 4.96399 14.8564 4.7282 14.6221C4.4924 14.3877 4.30526 14.1091 4.17757 13.8022C4.04987 13.4953 3.98413 13.1661 3.98413 12.8337C3.98413 12.5013 4.04987 12.1721 4.17757 11.8652C4.30526 11.5583 4.4924 11.2797 4.7282 11.0453C4.96399 10.811 5.2438 10.6256 5.55152 10.4999C5.85924 10.3741 6.18879 10.3105 6.52121 10.3126H12.8339Z" fill="#6B7280"/>
<path d="M22.9576 12.8338C22.9576 12.3351 23.1055 11.8477 23.3825 11.4331C23.6595 11.0184 24.0533 10.6953 24.514 10.5044C24.9747 10.3136 25.4816 10.2637 25.9707 10.3609C26.4598 10.4582 26.909 10.6983 27.2616 11.0509C27.6142 11.4035 27.8543 11.8528 27.9516 12.3419C28.0489 12.8309 27.9989 13.3379 27.8081 13.7986C27.6173 14.2593 27.2941 14.653 26.8795 14.93C26.4649 15.2071 25.9774 15.3549 25.4787 15.3549H22.9576V12.8338Z" fill="#6B7280"/>
<path d="M21.6872 12.8337C21.6831 13.4996 21.4156 14.1368 20.9432 14.6061C20.4709 15.0755 19.832 15.339 19.1661 15.339C18.5002 15.339 17.8613 15.0755 17.389 14.6061C16.9166 14.1368 16.6491 13.4996 16.6449 12.8337V6.52097C16.6429 6.18855 16.7065 5.859 16.8323 5.55128C16.958 5.24356 17.1434 4.96375 17.3777 4.72795C17.6121 4.49215 17.8907 4.30502 18.1976 4.17732C18.5045 4.04963 18.8337 3.98389 19.1661 3.98389C19.4985 3.98389 19.8277 4.04963 20.1346 4.17732C20.4415 4.30502 20.7201 4.49215 20.9545 4.72795C21.1888 4.96375 21.3742 5.24356 21.4999 5.55128C21.6257 5.859 21.6893 6.18855 21.6872 6.52097V12.8337Z" fill="#6B7280"/>
<path d="M19.1661 22.9575C19.6648 22.9575 20.1522 23.1054 20.5669 23.3824C20.9815 23.6594 21.3046 24.0532 21.4955 24.5139C21.6863 24.9745 21.7363 25.4815 21.639 25.9706C21.5417 26.4596 21.3016 26.9089 20.949 27.2615C20.5964 27.6141 20.1471 27.8542 19.6581 27.9515C19.169 28.0488 18.662 27.9988 18.2014 27.808C17.7407 27.6171 17.3469 27.294 17.0699 26.8794C16.7929 26.4647 16.645 25.9773 16.645 25.4786V22.9575H19.1661Z" fill="#6B7280"/>
<path d="M19.1661 21.6874C18.5002 21.6832 17.863 21.4157 17.3936 20.9434C16.9242 20.471 16.6608 19.8321 16.6608 19.1662C16.6608 18.5003 16.9242 17.8614 17.3936 17.3891C17.863 16.9167 18.5002 16.6493 19.1661 16.6451H25.4788C25.8112 16.643 26.1408 16.7066 26.4485 16.8324C26.7562 16.9582 27.036 17.1435 27.2718 17.3779C27.5076 17.6122 27.6947 17.8908 27.8224 18.1977C27.9501 18.5047 28.0159 18.8338 28.0159 19.1662C28.0159 19.4986 27.9501 19.8278 27.8224 20.1347C27.6947 20.4416 27.5076 20.7203 27.2718 20.9546C27.036 21.1889 26.7562 21.3743 26.4485 21.5C26.1408 21.6258 25.8112 21.6895 25.4788 21.6874H19.1661Z" fill="#6B7280"/>
</g>
<defs>
<clipPath id="clip0_83_623">
<rect width="32" height="32" fill="white"/>
</clipPath>
</defs>
</svg>
