<svg width="85" height="96" viewBox="0 0 85 96" fill="none" xmlns="http://www.w3.org/2000/svg">
<path fill-rule="evenodd" clip-rule="evenodd" d="M44.8407 95.3043L81.9478 73.8679C83.4939 72.9404 84.4731 71.2399 84.5247 69.4364V26.5636C84.5247 24.7601 83.5454 23.0596 81.9478 22.132L44.8407 0.695652C43.243 -0.231884 41.2846 -0.231884 39.6869 0.695652L2.57981 22.132C0.982145 23.0596 0.00292969 24.7085 0.00292969 26.5636V69.4364C0.00292969 71.2399 0.982145 72.9404 2.57981 73.8679L39.6869 95.3043C41.2846 96.2319 43.243 96.2319 44.8407 95.3043ZM43.6553 8.47669C43.1915 8.21904 42.7277 8.06445 42.2123 8.06445C41.7484 8.06445 41.2331 8.21904 40.7692 8.47669L8.71282 26.9759C7.83668 27.4912 7.26976 28.4702 7.26976 29.5008V66.4992C7.26976 67.5298 7.83668 68.5089 8.71282 69.0242L40.7692 87.5234C41.1815 87.781 41.6969 87.9356 42.2123 87.9356C42.7277 87.9356 43.1915 87.781 43.6553 87.5234L75.7118 69.0242C76.5879 68.5089 77.1548 67.5298 77.1548 66.4992V29.5008C77.1548 28.4702 76.5879 27.4912 75.7118 26.9759L43.6553 8.47669ZM39.9962 7.13691C40.6662 6.72467 41.4392 6.51855 42.2123 6.51855C42.9854 6.51855 43.7584 6.72467 44.4284 7.13691L76.4848 25.6361C77.8763 26.4091 78.7009 27.8519 78.7009 29.4493V66.4477C78.7009 67.9936 77.8763 69.488 76.4848 70.2609L44.4284 88.7601C43.7584 89.1723 42.9854 89.3785 42.2123 89.3785C41.4392 89.3785 40.6662 89.1723 39.9962 88.7601L7.93975 70.2609C6.54823 69.488 5.72363 68.0451 5.72363 66.4477V29.4493C5.72363 27.9034 6.54823 26.4091 7.93975 25.6361L39.9962 7.13691ZM46.7733 29.4492C46.7733 29.1915 46.5671 28.9339 46.2579 28.9339H36.5688C36.3112 28.9339 36.0535 29.14 36.0535 29.4492C36.0535 31.2012 36.3112 37.2302 38.888 40.1674C38.9911 40.2704 39.0942 40.3219 39.2488 40.3219H43.578C43.7326 40.3219 43.8357 40.2704 43.9387 40.1674C46.5156 37.2817 46.7733 31.2527 46.7733 29.4492ZM42.9595 38.8276H39.9188C39.7642 38.8276 39.6611 38.7761 39.558 38.673C37.8057 36.6118 37.5996 32.4894 37.5481 31.0466C37.5481 30.7889 37.7542 30.5313 38.0634 30.5313H44.8664C45.1241 30.5313 45.3818 30.7374 45.3818 31.0466C45.3818 32.4894 45.1241 36.5603 43.3718 38.673C43.2172 38.7761 43.1141 38.8276 42.9595 38.8276ZM42.3926 27.9033C42.3926 27.9033 44.248 26.8211 43.1141 24.863C42.4441 23.8324 42.1349 22.9564 42.3926 22.5957C42.3155 22.6905 42.2323 22.786 42.1473 22.8836C41.4931 23.6346 40.731 24.5096 41.8257 26.1513C42.238 26.615 42.4441 27.5941 42.3926 27.9033ZM40.3311 28.0579C40.3311 28.0579 41.568 27.3364 40.7949 25.9967C40.3534 25.3589 40.1453 24.7679 40.3042 24.5348L40.3311 24.5023C40.3212 24.5122 40.3122 24.523 40.3042 24.5348C40.2631 24.5841 40.2203 24.6335 40.177 24.6835L40.1769 24.6836C39.7316 25.1975 39.2332 25.7726 39.9703 26.9242C40.228 27.1819 40.3311 27.8517 40.3311 28.0579ZM43.0626 38.055C43.9388 37.0244 44.3511 35.4269 44.5572 34.0356C44.5572 34.0356 44.5057 34.4994 43.2688 34.9632C41.568 35.5815 38.5789 35.1693 38.5789 35.1693C38.8365 36.2514 39.2488 37.282 39.8673 38.055C39.9188 38.158 40.0734 38.2096 40.1765 38.2096H42.7534C42.8565 38.2096 42.9596 38.158 43.0626 38.055ZM10.697 42.3834H12.6039L15.7477 47.2272L18.8915 42.3834H20.7984V52.6893H18.9946V45.3206L15.7477 50.1644H15.6962L12.5008 45.3721V52.7409H10.697V42.3834ZM30.1267 52.8439C29.3536 52.8439 28.6321 52.6893 27.9621 52.4317C27.2921 52.174 26.7252 51.7618 26.2614 51.298C25.7976 50.8343 25.4368 50.2674 25.1791 49.5975C24.9214 48.9792 24.7668 48.2578 24.7668 47.5363V47.4848C24.7668 46.7634 24.9214 46.0935 25.1791 45.4236C25.4368 44.8053 25.7976 44.2384 26.3129 43.7231C26.7768 43.2594 27.3437 42.8471 28.0137 42.5895C28.6837 42.2803 29.4052 42.1772 30.1783 42.1772C30.9513 42.1772 31.6728 42.3318 32.3428 42.5895C33.0128 42.8471 33.5797 43.2594 34.0436 43.7231C34.5074 44.1869 34.8682 44.7537 35.1259 45.4236C35.3836 46.042 35.5382 46.7634 35.5382 47.4848V47.5363C35.5382 48.2578 35.3836 48.9277 35.1259 49.5975C34.8682 50.2159 34.5074 50.7827 33.992 51.298C33.5282 51.7618 32.9613 52.174 32.2913 52.4317C31.6213 52.7409 30.8998 52.8439 30.1267 52.8439ZM30.1267 51.195C30.6421 51.195 31.1059 51.0919 31.5182 50.8858C31.9305 50.6797 32.2913 50.422 32.6005 50.1128C32.9097 49.8037 33.1159 49.3914 33.3221 48.9792C33.4767 48.5154 33.5797 48.0516 33.5797 47.5879V47.5363C33.5797 47.021 33.4767 46.5573 33.3221 46.0935C33.1674 45.6297 32.9097 45.269 32.6005 44.9083C32.2913 44.5991 31.9305 44.3415 31.5182 44.1354C31.1059 43.9293 30.6421 43.8262 30.1267 43.8262C29.6113 43.8262 29.1475 43.9293 28.7352 44.1354C28.3229 44.3415 27.9621 44.5991 27.6529 44.9083C27.3437 45.2175 27.1375 45.6297 26.9314 46.042C26.7768 46.5057 26.6737 46.9695 26.6737 47.4333V47.4848C26.6737 48.0001 26.7768 48.4639 26.9314 48.9277C27.086 49.3914 27.3437 49.7521 27.6529 50.1128C27.9621 50.422 28.3229 50.6797 28.7352 50.8858C29.1475 51.0919 29.6629 51.195 30.1267 51.195ZM44.248 52.8439C43.475 52.8439 42.805 52.6893 42.1865 52.4317C41.5681 52.174 41.0012 51.7618 40.5373 51.298C40.0735 50.8343 39.7127 50.2674 39.455 49.5975C39.1973 48.9277 39.0427 48.2578 39.0427 47.5363V47.4848C39.0427 46.7634 39.1973 46.042 39.455 45.4236C39.7127 44.8053 40.0735 44.2384 40.5373 43.7231C41.0012 43.2594 41.5681 42.8471 42.2381 42.5895C42.9081 42.3318 43.578 42.1772 44.4026 42.1772C44.8665 42.1772 45.2788 42.2288 45.6911 42.2803C45.9659 42.349 46.195 42.4177 46.424 42.4864L46.4248 42.4866C46.5391 42.5209 46.6534 42.5552 46.7734 42.5895C47.0826 42.7441 47.3918 42.8987 47.6495 43.1048L47.6496 43.1049C47.9073 43.311 48.1649 43.5171 48.4226 43.7747L47.2372 45.1144C46.8249 44.7537 46.4126 44.4446 45.9488 44.1869C45.4849 43.9293 44.9696 43.8262 44.3511 43.8262C43.8357 43.8262 43.4234 43.9293 43.0111 44.1354C42.5988 44.3415 42.2381 44.5991 41.9288 44.9083C41.6196 45.2175 41.4135 45.6297 41.2073 46.0419L41.2073 46.042C41.0527 46.5057 40.9496 46.9695 40.9496 47.4333V47.4848C40.9496 48.0001 41.0527 48.4639 41.2073 48.9277C41.3619 49.3914 41.6196 49.7521 41.9288 50.1128C42.2381 50.422 42.5988 50.7312 43.0111 50.8858C43.4234 51.0404 43.8873 51.195 44.3511 51.195C44.9696 51.195 45.5365 51.0919 45.9488 50.8343C46.3611 50.5766 46.8249 50.2674 47.2888 49.8552L48.4741 51.0404C48.2365 51.3255 47.9988 51.523 47.7208 51.754L47.6495 51.8133C47.3403 52.071 47.0311 52.2256 46.7218 52.3801C46.4126 52.5347 46.0003 52.6893 45.6395 52.7409C45.1757 52.8439 44.7119 52.8439 44.248 52.8439ZM52.0818 42.3834H53.8856V46.6603H58.8332V42.3834H60.637V52.6893H58.8332V48.3608H53.8856V52.6893H52.0818V42.3834ZM68.6253 42.3318H70.2745L74.8099 52.6893H72.903L71.8722 50.2159H67.0277L65.9454 52.6893H64.09L68.6253 42.3318ZM71.2022 48.6185L69.4499 44.4961L67.6977 48.6185H71.2022ZM75.1192 55.9353H9.40869V56.5021H75.1192V55.9353ZM47.1858 36.5601H75.1192V37.1269H47.1343C47.1343 37.0238 47.1471 36.9336 47.16 36.8435C47.1729 36.7533 47.1858 36.6631 47.1858 36.5601ZM9.40869 37.1269V36.5601H35.6929C35.6929 36.6631 35.7058 36.7533 35.7187 36.8435C35.7315 36.9336 35.7444 37.0238 35.7444 37.1269H9.40869Z" fill="#6B7280"/>
</svg>
