<svg width="96" height="96" viewBox="0 0 96 96" fill="none" xmlns="http://www.w3.org/2000/svg">
<path fill-rule="evenodd" clip-rule="evenodd" d="M95.9997 47.9998C95.9997 74.5094 74.5094 95.9997 47.9998 95.9997C21.4903 95.9997 0 74.5094 0 47.9998C0 21.4903 21.4903 0 47.9998 0C74.5094 0 95.9997 21.4903 95.9997 47.9998ZM53.4405 12.4075C70.7413 15.03 84.0002 29.9661 84.0002 47.999C84.0002 52.6153 83.1313 57.0286 81.5482 61.0844C79.296 60.886 77.0266 61.9753 75.8216 64.0623C74.6183 66.1466 74.8076 68.6528 76.1009 70.5033C69.5032 78.731 59.367 83.9989 48.0003 83.9989C36.6335 83.9989 26.497 78.7308 19.8994 70.503C21.1925 68.6525 21.3817 66.1465 20.1784 64.0623C18.9735 61.9755 16.7044 60.8862 14.4524 61.0843C12.8693 57.0286 12.0004 52.6153 12.0004 47.999C12.0004 29.9663 25.259 15.0303 42.5595 12.4076C43.5146 14.4551 45.5916 15.8741 48 15.8741C50.4084 15.8741 52.4854 14.4551 53.4405 12.4075ZM10.0757 63.6065C8.09366 58.7957 7.00042 53.525 7.00042 47.999C7.00042 27.2028 22.4837 10.0229 42.5515 7.35805C43.5029 5.30118 45.5848 3.87416 48 3.87416C50.4151 3.87416 52.497 5.30113 53.4485 7.35796C73.5165 10.0225 89.0002 27.2026 89.0002 47.999C89.0002 53.5252 87.9069 58.7961 85.9247 63.607C87.227 65.4589 87.4203 67.9726 86.2139 70.0623C85.0056 72.1552 82.7268 73.2447 80.4684 73.0385C72.9705 82.7465 61.2156 88.9989 48.0003 88.9989C34.785 88.9989 23.0301 82.7465 15.5322 73.0385C13.2736 73.2449 10.9945 72.1554 9.78612 70.0623C8.57955 67.9725 8.77307 65.4585 10.0757 63.6065ZM39.7473 33.5352V34.7168C41.4659 32.4492 43.3397 30.7902 45.3686 29.74C47.4213 28.6659 49.7725 28.1288 52.422 28.1288C54.9999 28.1288 57.3033 28.6897 59.3322 29.8116C61.3611 30.9335 62.8768 32.5208 63.8793 34.5735C64.5238 35.767 64.9415 37.056 65.1324 38.4404C65.3234 39.8248 65.4189 41.5911 65.4189 43.7394V61.9278C65.4189 63.8851 64.9653 65.365 64.0583 66.3675C63.1751 67.3701 62.0175 67.8713 60.5853 67.8713C59.1293 67.8713 57.9477 67.3581 57.0407 66.3317C56.1337 65.3054 55.6802 63.8374 55.6802 61.9278V45.637C55.6802 42.4146 55.2266 39.9561 54.3196 38.2614C53.4364 36.5428 51.6582 35.6835 48.9848 35.6835C47.2423 35.6835 45.655 36.2086 44.2229 37.2588C42.7907 38.2852 41.7404 39.7055 41.0721 41.5195C40.5947 42.9756 40.356 45.6967 40.356 49.6828V61.9278C40.356 63.909 39.8906 65.4008 38.9597 66.4034C38.0526 67.382 36.8711 67.8713 35.4151 67.8713C34.0068 67.8713 32.8491 67.3581 31.9421 66.3317C31.035 65.3054 30.5815 63.8374 30.5815 61.9278V33.6784C30.5815 31.8166 30.9873 30.4322 31.7988 29.5252C32.6104 28.5943 33.7203 28.1288 35.1286 28.1288C35.9879 28.1288 36.7637 28.3317 37.4559 28.7375C38.1481 29.1432 38.6971 29.7519 39.1029 30.5635C39.5325 31.375 39.7473 32.3656 39.7473 33.5352Z" fill="#6B7280"/>
</svg>
